<svg width="296" height="210" viewBox="0 0 296 210" fill="none" xmlns="http://www.w3.org/2000/svg">
<rect width="296" height="210" rx="105" fill="white"/>
<rect width="296" height="210" rx="105" fill="black" fill-opacity="0.03"/>
<path d="M118.93 66.9461C106.588 73.7024 94.0664 74.1978 83.7964 69.6485C73.5265 65.0992 65.5987 55.4147 62.3106 41.7215C87.0395 28.2984 112.399 39.6045 118.93 66.9459V66.9461Z" fill="#199180"/>
<path d="M115.777 65.7736L66.5894 43.7021C66.5442 43.7021 66.5442 43.6569 66.5442 43.6121C66.5442 43.5674 66.5894 43.5669 66.6346 43.5669L115.912 65.4133C115.933 65.4213 115.953 65.4337 115.969 65.4497C115.985 65.4657 115.998 65.4848 116.007 65.506C116.015 65.5272 116.019 65.5499 116.018 65.5727C116.018 65.5955 116.012 65.6178 116.002 65.6384C115.957 65.7736 115.867 65.8186 115.777 65.7736Z" fill="white"/>
<path d="M87.4452 52.9364C86.4747 51.853 85.6839 50.6212 85.1029 49.2878C84.796 48.6221 84.5547 47.9282 84.3823 47.2158C84.2113 46.5063 84.1057 45.7826 84.067 45.0538C84.067 45.006 84.086 44.9602 84.1197 44.9264C84.1535 44.8926 84.1994 44.8736 84.2471 44.8736C84.2949 44.8736 84.3407 44.8926 84.3745 44.9264C84.4083 44.9602 84.4273 45.006 84.4273 45.0538C84.4106 45.7662 84.4864 46.4778 84.6526 47.1708C84.7942 47.8805 85.0054 48.5745 85.2833 49.2428C85.8269 50.5693 86.5547 51.8127 87.4452 52.9362V52.9364ZM102.4 59.6479C100.952 59.7062 99.5226 59.9951 98.1657 60.5037C97.4917 60.7391 96.8428 61.0409 96.2286 61.4046C95.6218 61.7735 95.0491 62.1956 94.5171 62.6659C94.4812 62.7017 94.4326 62.7219 94.3819 62.7219C94.3312 62.7219 94.2826 62.7017 94.2467 62.6659C94.2109 62.63 94.1907 62.5814 94.1907 62.5307C94.1907 62.48 94.2109 62.4314 94.2467 62.3956C95.4005 61.4739 96.7134 60.7716 98.1205 60.3235C99.5007 59.862 100.944 59.6188 102.4 59.6027C102.445 59.5577 102.445 59.6027 102.4 59.6479C102.445 59.6027 102.445 59.6479 102.4 59.6479H102.4ZM107.625 61.9451C106.654 60.8617 105.864 59.6299 105.282 58.2965C104.976 57.6308 104.734 56.9369 104.562 56.2245C104.391 55.515 104.285 54.7913 104.247 54.0625C104.247 54.0147 104.266 53.9689 104.299 53.9351C104.333 53.9013 104.379 53.8823 104.427 53.8823C104.474 53.8823 104.52 53.9013 104.554 53.9351C104.588 53.9689 104.607 54.0147 104.607 54.0625C104.59 54.7749 104.666 55.4865 104.832 56.1795C104.974 56.8892 105.185 57.5832 105.463 58.2515C106.006 59.5781 106.734 60.8215 107.625 61.9451C107.67 61.9451 107.67 61.8999 107.625 61.9451ZM79.833 49.5581C78.385 49.6164 76.9557 49.9053 75.5987 50.4139C74.9249 50.6493 74.2761 50.9511 73.6619 51.3148C73.0551 51.6837 72.4822 52.1058 71.9501 52.5761C71.9086 52.5982 71.8622 52.6098 71.8151 52.6098C71.768 52.6098 71.7216 52.5982 71.68 52.5761C71.5898 52.5309 71.6348 52.3957 71.68 52.3058C72.8338 51.3841 74.1467 50.6819 75.5538 50.2337C76.9339 49.7722 78.3776 49.529 79.8327 49.5129C79.878 49.5129 79.878 49.5129 79.8327 49.5581H79.833Z" fill="white"/>
<path d="M118.931 66.9453C112.354 79.377 102.174 86.7192 91.0938 88.5661C80.013 90.413 68.0314 86.7644 57.8064 77.1251C71.0043 52.306 98.3907 47.7567 118.931 66.9451V66.9453Z" fill="#2AB19F"/>
<path d="M115.642 67.7112L62.4457 76.4046C62.4005 76.4046 62.3553 76.4046 62.3553 76.3594C62.3553 76.3142 62.3553 76.2694 62.4005 76.2694L115.552 67.3509C115.598 67.3501 115.644 67.3623 115.684 67.3862C115.724 67.4101 115.756 67.4447 115.777 67.4861C115.822 67.5761 115.732 67.6662 115.642 67.7112Z" fill="white"/>
<path d="M84.9228 72.6205C83.5194 72.2411 82.1826 71.6487 80.9589 70.8637C80.3422 70.4752 79.7685 70.0221 79.2474 69.5123C78.7198 68.9994 78.2375 68.4418 77.806 67.8458C77.7912 67.8251 77.7807 67.8016 77.7749 67.7769C77.7692 67.7521 77.7684 67.7264 77.7725 67.7013C77.7767 67.6762 77.7858 67.6522 77.7993 67.6306C77.8127 67.609 77.8303 67.5902 77.851 67.5754C77.8717 67.5606 77.8951 67.5501 77.9199 67.5443C77.9447 67.5386 77.9704 67.5378 77.9955 67.5419C78.0206 67.5461 78.0446 67.5552 78.0662 67.5687C78.0878 67.5821 78.1065 67.5997 78.1213 67.6204C78.5216 68.2148 78.9738 68.7726 79.4726 69.2872C79.9777 69.7965 80.5365 70.2496 81.1393 70.6384C82.3205 71.473 83.6286 72.1118 85.013 72.5303C84.9678 72.5755 84.9678 72.6205 84.9228 72.6205ZM101.094 69.9628C99.9327 70.8161 98.901 71.8326 98.0306 72.9807C97.5872 73.5521 97.2094 74.1716 96.9045 74.8274C96.6028 75.4692 96.3469 76.1315 96.1387 76.8095C96.1334 76.8338 96.1233 76.8568 96.109 76.8772C96.0946 76.8975 96.0763 76.9148 96.0552 76.9279C96.0341 76.941 96.0105 76.9498 95.9859 76.9536C95.9613 76.9575 95.9362 76.9564 95.912 76.9503C95.8879 76.9443 95.8652 76.9334 95.8453 76.9185C95.8254 76.9035 95.8088 76.8846 95.7963 76.8631C95.7839 76.8415 95.7758 76.8177 95.7728 76.793C95.7697 76.7683 95.7716 76.7432 95.7784 76.7193C95.9893 76.0146 96.2763 75.3349 96.6342 74.6922C96.9973 74.0499 97.4036 73.4329 97.8502 72.8456C98.7757 71.7227 99.8698 70.7502 101.094 69.9628C101.139 69.9628 101.139 69.9176 101.094 69.9628ZM106.724 69.0168C105.321 68.6375 103.984 68.045 102.76 67.2601C102.143 66.8716 101.57 66.4187 101.049 65.9089C100.521 65.3959 100.039 64.8383 99.6072 64.2422C99.5816 64.1991 99.572 64.1483 99.5803 64.0989C99.5885 64.0494 99.614 64.0045 99.6521 63.972C99.7423 63.8819 99.8323 63.9268 99.9225 64.017C100.323 64.6113 100.775 65.169 101.274 65.6836C101.779 66.193 102.338 66.6461 102.94 67.035C104.122 67.8696 105.43 68.5084 106.814 68.9269L106.724 69.0168ZM76.7252 74.0166C75.5642 74.87 74.5325 75.8865 73.662 77.0346C73.2185 77.606 72.8408 78.2254 72.5359 78.8813C72.2342 79.5231 71.9783 80.1854 71.7701 80.8633C71.7569 80.9098 71.7262 80.9492 71.6844 80.9734C71.6426 80.9976 71.5931 81.0045 71.5463 80.9928C71.4994 80.9811 71.459 80.9516 71.4336 80.9106C71.4081 80.8696 71.3996 80.8203 71.4098 80.7732C71.6207 80.0685 71.9077 79.3889 72.2656 78.7463C72.6287 78.104 73.035 77.487 73.4816 76.8997C74.4071 75.7767 75.5013 74.8041 76.7252 74.0166Z" fill="white"/>
<path d="M118.885 66.9455C104.966 64.7381 94.7411 57.4861 89.426 47.6217C84.1109 37.7572 83.6604 25.2349 89.426 12.3975C117.218 16.8568 130.416 41.2707 118.885 66.9455Z" fill="#48DBC5"/>
<path d="M117.129 64.063L91.634 16.587C91.634 16.5418 91.634 16.4971 91.6792 16.4971C91.7244 16.4971 91.7691 16.4971 91.7691 16.5421L117.444 63.9279C117.454 63.9484 117.459 63.9708 117.46 63.9937C117.461 64.0165 117.457 64.0392 117.449 64.0604C117.44 64.0816 117.427 64.1008 117.411 64.1168C117.395 64.1328 117.375 64.1452 117.354 64.1532C117.264 64.1532 117.174 64.1532 117.129 64.063Z" fill="white"/>
<path d="M102.489 36.5864C102.405 35.1353 102.527 33.6796 102.849 32.2622C103.022 31.5498 103.263 30.8559 103.57 30.1902C103.859 29.5214 104.222 28.8868 104.651 28.2983C104.696 28.2084 104.831 28.2084 104.921 28.2531C105.012 28.2979 105.011 28.4335 104.967 28.5237C104.549 29.0969 104.173 29.6988 103.84 30.3252C103.512 30.9708 103.255 31.6506 103.074 32.3522C102.671 33.7414 102.489 35.1855 102.534 36.6314C102.534 36.5862 102.534 36.6316 102.489 36.5864ZM110.281 51.0454C109.111 50.1934 107.8 49.5531 106.408 49.1535C105.04 48.7232 103.604 48.5551 102.174 48.6581C102.126 48.6581 102.08 48.6391 102.046 48.6053C102.013 48.5715 101.994 48.5257 101.994 48.4779C101.994 48.4302 102.013 48.3843 102.046 48.3505C102.08 48.3168 102.126 48.2978 102.174 48.2978C102.912 48.2754 103.651 48.3207 104.381 48.433C105.098 48.5652 105.805 48.7458 106.498 48.9734C107.878 49.4199 109.162 50.1228 110.282 51.0454C110.327 51.0002 110.327 51.0454 110.282 51.0454H110.281ZM112.984 56.0452C112.9 54.5941 113.022 53.1385 113.344 51.7213C113.517 51.0087 113.758 50.3147 114.065 49.649C114.354 48.9801 114.717 48.3456 115.146 47.7571C115.191 47.6672 115.327 47.6672 115.416 47.7121C115.506 47.7571 115.507 47.8923 115.462 47.9825C115.044 48.5557 114.668 49.1578 114.336 49.7842C114.007 50.4298 113.75 51.1096 113.57 51.8112C113.166 53.2004 112.984 54.6444 113.029 56.0902C113.029 56.0452 113.029 56.0902 112.984 56.0452ZM98.5252 29.2893C97.3543 28.4372 96.0433 27.7969 94.6514 27.3974C93.2838 26.967 91.8472 26.7989 90.4172 26.9019C90.3694 26.9019 90.3236 26.8829 90.2898 26.8492C90.256 26.8154 90.2371 26.7696 90.2371 26.7218C90.2371 26.674 90.256 26.6282 90.2898 26.5944C90.3236 26.5606 90.3694 26.5416 90.4172 26.5416C91.1555 26.5193 91.8943 26.5645 92.6244 26.6768C93.3414 26.809 94.0487 26.9896 94.7414 27.2172C96.1182 27.672 97.4005 28.3741 98.5252 29.2893C98.5704 29.2893 98.5704 29.2443 98.5252 29.2893Z" fill="white"/>
<path d="M190.639 42.9821C190.404 42.8124 190.146 42.6759 189.874 42.5766C188.651 42.0663 187.279 42.0501 186.045 42.5314C185.428 42.7733 184.867 43.1374 184.395 43.6019C183.923 44.0664 183.549 44.6217 183.297 45.2343C183.208 45.4433 183.039 45.6082 182.828 45.6927C182.616 45.7772 182.38 45.7743 182.171 45.6846C181.962 45.595 181.797 45.426 181.713 45.2148C181.628 45.0036 181.631 44.7675 181.721 44.5584C182.422 42.9027 183.75 41.5914 185.414 40.9101C186.229 40.5716 187.104 40.4011 187.986 40.4089C188.869 40.4166 189.741 40.6025 190.549 40.9553C190.916 41.09 191.265 41.2715 191.585 41.4955L200.054 46.9008C200.633 47.286 201.137 47.7746 201.54 48.3422C202 49.0319 202.282 49.8249 202.361 50.6503C202.439 51.4757 202.312 52.3077 201.99 53.0719C201.84 53.4405 201.643 53.7886 201.405 54.1078C200.77 54.1142 200.152 53.9081 199.648 53.5224C199.693 53.4772 199.738 53.3872 199.783 53.342C200.045 53.0732 200.245 52.7503 200.369 52.3961C200.606 51.8033 200.674 51.1557 200.562 50.5267C200.451 49.8978 200.165 49.3126 199.738 48.8377C199.538 48.6465 199.327 48.4661 199.108 48.2972" fill="#C8E1FF"/>
<path d="M192.306 73.9268C192.087 73.9273 191.87 73.8846 191.668 73.801C191.465 73.7174 191.281 73.5947 191.126 73.4398C190.971 73.2849 190.849 73.101 190.765 72.8985C190.682 72.6961 190.639 72.4791 190.639 72.26V54.7381C190.639 48.8366 188.295 43.1768 184.122 39.0039C179.949 34.8309 174.289 32.4865 168.388 32.4865C162.486 32.4865 156.826 34.8309 152.653 39.0039C148.48 43.1768 146.136 48.8366 146.136 54.7381V72.26C146.136 72.702 145.961 73.1259 145.648 73.4385C145.335 73.751 144.912 73.9266 144.47 73.9266C144.028 73.9266 143.604 73.751 143.291 73.4385C142.979 73.1259 142.803 72.702 142.803 72.26V54.7381C142.803 40.5945 154.289 29.1085 168.388 29.1085C175.184 29.1124 181.701 31.8139 186.507 36.6195C191.312 41.4252 194.014 47.9419 194.018 54.7381V72.26C194.001 72.7045 193.814 73.1256 193.495 73.436C193.177 73.7463 192.751 73.9221 192.306 73.9268Z" fill="#DDE3EA"/>
<path d="M211.315 185.275H194.333C195.723 185.275 197.096 184.981 198.364 184.412C199.632 183.843 200.764 183.012 201.688 181.974C202.611 180.935 203.304 179.713 203.721 178.388C204.138 177.063 204.27 175.664 204.108 174.284L190.955 65.0984C190.672 62.7081 189.519 60.5055 187.717 58.9105C185.914 57.3155 183.587 56.4397 181.18 56.45H198.162C200.567 56.4469 202.89 57.3253 204.691 58.9189C206.492 60.5126 207.646 62.711 207.936 65.0984L221.089 174.284C221.244 175.663 221.107 177.058 220.687 178.38C220.267 179.702 219.573 180.921 218.652 181.958C217.73 182.995 216.6 183.826 215.336 184.397C214.072 184.968 212.702 185.267 211.315 185.275Z" fill="#D5173C"/>
<path d="M201.18 185.275H107.579C106.19 185.275 104.816 184.981 103.548 184.412C102.281 183.844 101.148 183.013 100.224 181.974C99.3011 180.936 98.6081 179.714 98.1911 178.389C97.774 177.063 97.6424 175.664 97.8049 174.285L110.958 65.0537C111.241 62.6634 112.393 60.4609 114.196 58.8659C115.998 57.2709 118.325 56.3951 120.732 56.4053H188.027C190.432 56.4022 192.755 57.2805 194.556 58.8742C196.357 60.4678 197.512 62.6663 197.802 65.0537L210.954 174.24C211.118 175.622 210.987 177.023 210.57 178.351C210.154 179.68 209.462 180.905 208.539 181.947C207.616 182.989 206.483 183.824 205.215 184.398C203.947 184.971 202.572 185.27 201.18 185.275Z" fill="#8A226F"/>
<path d="M182.712 72.8018C182.712 73.6659 182.456 74.5106 181.976 75.2292C181.495 75.9477 180.813 76.5077 180.015 76.8384C179.216 77.1691 178.338 77.2556 177.49 77.087C176.643 76.9184 175.864 76.5023 175.253 75.8912C174.642 75.2802 174.226 74.5017 174.057 73.6542C173.889 72.8066 173.975 71.9281 174.306 71.1298C174.637 70.3314 175.197 69.649 175.915 69.1689C176.634 68.6888 177.479 68.4326 178.343 68.4326C179.499 68.4413 180.605 68.9045 181.423 69.722C182.24 70.5395 182.703 71.6457 182.712 72.8018ZM134.83 72.8018C134.83 73.6659 134.574 74.5106 134.094 75.2292C133.614 75.9477 132.932 76.5077 132.133 76.8384C131.335 77.1691 130.456 77.2556 129.609 77.087C128.761 76.9184 127.983 76.5023 127.372 75.8912C126.761 75.2802 126.345 74.5017 126.176 73.6542C126.007 72.8066 126.094 71.9281 126.425 71.1298C126.755 70.3314 127.315 69.649 128.034 69.1689C128.752 68.6888 129.597 68.4326 130.461 68.4326C131.036 68.4294 131.605 68.5402 132.137 68.7586C132.669 68.977 133.152 69.2987 133.558 69.7051C133.964 70.1114 134.286 70.5944 134.504 71.1259C134.723 71.6575 134.834 72.2271 134.83 72.8018Z" fill="white"/>
<path d="M178.342 73.9268C178.123 73.9273 177.906 73.8846 177.704 73.801C177.502 73.7174 177.318 73.5947 177.163 73.4398C177.008 73.2849 176.885 73.101 176.801 72.8985C176.718 72.6961 176.675 72.4791 176.676 72.26V54.7381C176.676 48.8366 174.331 43.1768 170.158 39.0039C165.985 34.8309 160.326 32.4865 154.424 32.4865C148.523 32.4865 142.863 34.8309 138.69 39.0039C134.517 43.1768 132.172 48.8366 132.172 54.7381V72.26C132.173 72.4791 132.13 72.696 132.047 72.8985C131.963 73.1009 131.84 73.2849 131.686 73.4397C131.531 73.5946 131.347 73.7174 131.144 73.801C130.942 73.8845 130.725 73.9273 130.506 73.9268C130.066 73.9202 129.646 73.7424 129.335 73.4312C129.024 73.1201 128.846 72.7 128.839 72.26V54.7381C128.839 40.5945 140.326 29.1085 154.424 29.1085C161.221 29.1124 167.737 31.8139 172.543 36.6195C177.349 41.4252 180.05 47.9419 180.054 54.7381V72.26C180.037 72.7045 179.85 73.1256 179.532 73.4359C179.213 73.7462 178.787 73.922 178.342 73.9268Z" fill="#F0F4F9"/>
<path d="M154.379 149.149C170.002 149.149 182.667 136.485 182.667 120.862C182.667 105.239 170.002 92.5746 154.379 92.5746C138.757 92.5746 126.092 105.239 126.092 120.862C126.092 136.485 138.757 149.149 154.379 149.149Z" fill="white"/>
<path d="M154.928 136.288C155.973 135.623 157.021 134.962 158.066 134.297C158.54 133.997 159.019 133.7 159.48 133.378C160.596 132.599 161.647 131.718 162.575 130.722C164.421 128.743 165.816 126.402 166.703 123.845C167.42 121.776 167.727 119.59 167.727 117.407V113.291C167.727 112.599 167.244 111.996 166.592 111.801C166.214 111.686 165.84 111.569 165.478 111.417C165.602 111.47 165.726 111.522 165.846 111.572C165.2 111.297 164.594 110.944 164.037 110.517C164.143 110.598 164.245 110.678 164.35 110.759C163.799 110.332 163.305 109.84 162.878 109.29C162.958 109.395 163.039 109.497 163.119 109.602C162.692 109.046 162.337 108.436 162.062 107.79C162.114 107.914 162.167 108.038 162.216 108.158C162.123 107.935 162.037 107.707 161.963 107.478C161.752 106.825 161.171 106.343 160.472 106.343H149.374C148.864 106.343 148.351 106.331 147.84 106.343H147.819C147.117 106.343 146.535 106.828 146.328 107.478C146.254 107.71 146.171 107.935 146.075 108.158C146.127 108.034 146.18 107.911 146.229 107.79C145.954 108.436 145.599 109.042 145.172 109.602C145.252 109.497 145.333 109.395 145.413 109.29C144.986 109.84 144.492 110.332 143.941 110.759C144.046 110.678 144.148 110.598 144.253 110.517C143.697 110.944 143.088 111.297 142.444 111.572C142.568 111.519 142.692 111.467 142.812 111.417C142.448 111.569 142.076 111.686 141.699 111.801C141.047 111.999 140.564 112.602 140.564 113.291V117.02C140.564 117.676 140.564 118.332 140.611 118.987C140.71 120.348 140.939 121.705 141.319 123.013C142.08 125.611 143.391 127.998 145.135 130.067C146.477 131.659 148.1 132.949 149.853 134.059L153.277 136.229C153.304 136.248 153.335 136.266 153.363 136.285C153.694 136.495 154.183 136.545 154.554 136.44C154.912 136.341 155.302 136.062 155.478 135.728C155.88 134.965 155.654 134.077 154.925 133.613C154.368 133.261 153.811 132.908 153.258 132.556C152.547 132.104 151.839 131.656 151.127 131.204C150.63 130.889 150.144 130.552 149.674 130.193C149.779 130.274 149.881 130.354 149.986 130.435C148.818 129.529 147.766 128.477 146.86 127.308C146.941 127.413 147.021 127.515 147.101 127.621C146.18 126.424 145.413 125.113 144.822 123.721C144.875 123.845 144.928 123.969 144.977 124.089C144.374 122.658 143.963 121.155 143.756 119.615C143.774 119.751 143.793 119.89 143.811 120.026C143.678 119.024 143.657 118.022 143.657 117.017V113.291C143.279 113.789 142.899 114.284 142.522 114.782C143.613 114.454 144.674 114.015 145.602 113.347C146.721 112.543 147.67 111.56 148.382 110.372C148.768 109.726 149.077 109.018 149.309 108.3C148.811 108.678 148.317 109.058 147.819 109.435H158.917C159.427 109.435 159.94 109.444 160.451 109.435H160.472C159.974 109.058 159.48 108.678 158.982 108.3C159.783 110.796 161.592 112.979 163.976 114.101C164.557 114.377 165.154 114.593 165.769 114.779C165.392 114.281 165.012 113.786 164.634 113.288V117.673C164.634 118.458 164.582 119.244 164.48 120.023C164.498 119.887 164.517 119.748 164.535 119.612C164.325 121.149 163.914 122.654 163.314 124.086C163.366 123.962 163.419 123.839 163.469 123.718C162.878 125.11 162.111 126.421 161.19 127.618C161.27 127.512 161.35 127.41 161.431 127.305C160.525 128.474 159.473 129.525 158.305 130.431C158.41 130.351 158.512 130.271 158.617 130.19C157.924 130.725 157.188 131.186 156.452 131.656C155.636 132.175 154.82 132.692 154.003 133.211C153.793 133.344 153.58 133.48 153.369 133.613C153.032 133.827 152.766 134.148 152.658 134.538C152.556 134.909 152.602 135.401 152.813 135.728C153.026 136.059 153.341 136.35 153.737 136.44C154.136 136.532 154.575 136.511 154.928 136.288Z" fill="#8A226F"/>
<path d="M147.628 121.574L150.804 124.75L151.255 125.202C151.846 125.792 152.851 125.792 153.441 125.202L155.893 122.749L159.774 118.869L160.668 117.975C160.949 117.694 161.119 117.279 161.119 116.88C161.119 116.5 160.952 116.049 160.668 115.786C160.374 115.517 159.987 115.316 159.573 115.334C159.162 115.353 158.775 115.492 158.478 115.786L156.026 118.238L152.146 122.119L151.252 123.012H153.438L150.262 119.837L149.811 119.385C149.53 119.104 149.115 118.934 148.716 118.934C148.336 118.934 147.884 119.101 147.622 119.385C147.353 119.679 147.152 120.065 147.17 120.48C147.195 120.891 147.334 121.281 147.628 121.574Z" fill="#8A226F"/>
<path d="M238.16 185.275H183.342C182.894 185.276 182.451 185.182 182.043 184.997C181.635 184.812 181.271 184.542 180.977 184.205C180.682 183.867 180.463 183.471 180.335 183.041C180.207 182.612 180.173 182.16 180.234 181.717L186.855 131.133C186.953 130.376 187.322 129.681 187.894 129.176C188.465 128.67 189.201 128.389 189.963 128.385H231.449C232.214 128.382 232.953 128.661 233.526 129.167C234.099 129.674 234.466 130.373 234.557 131.133L241.178 181.717C241.254 182.155 241.232 182.605 241.115 183.034C240.998 183.463 240.788 183.862 240.501 184.201C240.213 184.54 239.854 184.812 239.45 184.998C239.045 185.184 238.605 185.278 238.16 185.275Z" fill="#FF9A05"/>
<path d="M196.946 140.727C198.687 140.727 200.099 139.315 200.099 137.574C200.099 135.833 198.687 134.421 196.946 134.421C195.204 134.421 193.793 135.833 193.793 137.574C193.793 139.315 195.204 140.727 196.946 140.727Z" fill="white"/>
<path d="M224.558 140.727C226.299 140.727 227.711 139.315 227.711 137.574C227.711 135.833 226.299 134.421 224.558 134.421C222.816 134.421 221.405 135.833 221.405 137.574C221.405 139.315 222.816 140.727 224.558 140.727Z" fill="white"/>
<path d="M224.558 138.474C224.416 138.476 224.274 138.449 224.142 138.396C224.01 138.342 223.89 138.262 223.789 138.162C223.689 138.061 223.609 137.941 223.555 137.809C223.502 137.677 223.475 137.535 223.477 137.393V125.321C223.477 121.952 222.139 118.722 219.757 116.339C217.375 113.957 214.144 112.619 210.775 112.619C207.406 112.619 204.175 113.957 201.793 116.339C199.411 118.722 198.073 121.952 198.073 125.321V137.393C198.074 137.535 198.048 137.677 197.994 137.809C197.941 137.941 197.861 138.061 197.76 138.162C197.659 138.262 197.539 138.342 197.407 138.396C197.275 138.449 197.134 138.476 196.991 138.474C196.706 138.47 196.433 138.355 196.231 138.153C196.029 137.951 195.914 137.678 195.91 137.393V125.321C195.91 121.367 197.481 117.575 200.277 114.779C203.073 111.983 206.866 110.412 210.82 110.412C214.774 110.412 218.566 111.983 221.362 114.779C224.158 117.575 225.729 121.367 225.729 125.321V137.393C225.705 137.687 225.571 137.961 225.354 138.162C225.137 138.362 224.853 138.473 224.558 138.474Z" fill="#DDE3EA"/>
<path d="M217.036 41.6316L258.611 68.7028C259.277 69.1313 259.852 69.6878 260.301 70.34C260.751 70.9923 261.067 71.7273 261.23 72.5024C261.393 73.2775 261.401 74.0774 261.253 74.8556C261.105 75.6338 260.804 76.3749 260.368 77.0359L246.359 98.5218C245.931 99.188 245.374 99.7627 244.722 100.212C244.07 100.662 243.335 100.978 242.56 101.141C241.784 101.304 240.985 101.312 240.206 101.164C239.428 101.016 238.687 100.715 238.026 100.278L196.451 73.2072C195.589 72.65 194.884 71.8815 194.403 70.9748C193.922 70.0681 193.681 69.0534 193.703 68.0272L194.063 52.9374C194.083 51.815 194.419 50.7209 195.033 49.7808C195.646 48.8407 196.512 48.0926 197.532 47.6225L211.18 41.2263C212.112 40.8008 213.137 40.615 214.159 40.6857C215.182 40.7565 216.171 41.0816 217.036 41.6316Z" fill="#A3CAED"/>
<path d="M200.729 56.451C202.322 56.451 203.612 55.1604 203.612 53.5682C203.612 51.9761 202.322 50.6854 200.729 50.6854C199.137 50.6854 197.847 51.9761 197.847 53.5682C197.847 55.1604 199.137 56.451 200.729 56.451Z" fill="white"/>
<path d="M203.207 52.0809C203.406 52.4029 203.54 52.7612 203.601 53.1351C203.661 53.5091 203.647 53.8913 203.559 54.2597C203.471 54.6282 203.311 54.9756 203.088 55.2819C202.866 55.5883 202.584 55.8476 202.261 56.0448C201.806 56.3429 201.273 56.4997 200.729 56.4953C200.095 56.5016 199.477 56.2955 198.973 55.9098C198.688 55.7003 198.444 55.4408 198.252 55.1441C197.862 54.5184 197.728 53.766 197.879 53.0442C198.03 52.3223 198.454 51.6867 199.063 51.2701C199.108 51.2251 199.153 51.2251 199.198 51.1801C199.857 50.7975 200.636 50.6776 201.379 50.8446C202.122 51.0116 202.775 51.4532 203.207 52.0809Z" fill="white"/>
<path d="M224.288 52.6668C224.439 52.7617 224.569 52.8866 224.669 53.0338C224.77 53.181 224.839 53.3474 224.873 53.5226C224.946 53.8638 224.882 54.2201 224.693 54.5137L211.315 75.0536C211.119 75.3468 210.818 75.5528 210.473 75.6284C210.129 75.704 209.769 75.6432 209.468 75.4589C209.317 75.364 209.187 75.2391 209.087 75.0919C208.986 74.9447 208.917 74.7783 208.883 74.6031C208.81 74.262 208.874 73.9058 209.063 73.6122L222.441 53.0723C222.534 52.923 222.656 52.7938 222.8 52.6923C222.944 52.5908 223.107 52.519 223.279 52.4813C223.451 52.4435 223.629 52.4405 223.802 52.4723C223.975 52.5042 224.14 52.5703 224.288 52.6668Z" fill="#92BFED"/>
<path d="M229.466 84.7374C229.196 83.6113 229.376 82.4403 230.007 81.269C230.187 80.9537 230.458 80.5484 230.773 80.0077C231.133 79.4675 231.403 79.062 231.629 78.7465C232.439 77.6656 233.43 76.99 234.556 76.8098C235.682 76.5845 236.899 76.8998 238.16 77.7558C239.421 78.6118 240.232 79.5572 240.502 80.6836C240.772 81.8099 240.547 82.9357 239.917 84.1518C239.511 84.8276 239.241 85.2779 239.151 85.4582C239.016 85.6384 238.745 86.0436 238.295 86.6743C237.484 87.7554 236.493 88.386 235.367 88.5662C234.196 88.7463 233.025 88.476 231.764 87.6652C230.503 86.8544 229.737 85.9085 229.466 84.7374ZM218.251 78.4312C218.231 78.3469 218.228 78.2593 218.244 78.1741C218.259 78.0888 218.292 78.0077 218.341 77.9359C218.426 77.8363 218.534 77.759 218.656 77.7106L243.88 68.6569C244.097 68.577 244.325 68.5314 244.556 68.5217C244.782 68.5423 244.999 68.6197 245.187 68.7469L246.628 69.6928C246.786 69.7985 246.898 69.9591 246.944 70.1433C246.98 70.3139 246.948 70.492 246.853 70.6387C246.768 70.7383 246.66 70.8157 246.538 70.8641L221.314 79.9178C221.097 79.9977 220.869 80.0433 220.638 80.0529C220.424 80.0386 220.22 79.96 220.052 79.8276L218.611 78.8819C218.522 78.8376 218.443 78.7744 218.381 78.6965C218.319 78.6187 218.274 78.5282 218.251 78.4314V78.4312ZM234.601 85.8185C235.073 85.6427 235.482 85.3287 235.773 84.9176C236.056 84.5518 236.326 84.1762 236.583 83.7915C236.833 83.4314 237.059 83.0552 237.259 82.6654C237.526 82.2173 237.651 81.6994 237.619 81.179C237.574 80.6835 237.304 80.2781 236.764 79.9178C236.55 79.7675 236.307 79.6655 236.05 79.6188C235.794 79.5722 235.53 79.5819 235.277 79.6474C234.79 79.817 234.365 80.1313 234.061 80.5484C233.881 80.8187 233.61 81.179 233.295 81.6295C233.035 82.0224 232.794 82.4283 232.575 82.8455C232.321 83.2812 232.211 83.7853 232.259 84.2869C232.304 84.7824 232.575 85.1879 233.115 85.5482C233.656 85.8636 234.151 85.9537 234.601 85.8185ZM224.782 67.8911C224.467 66.765 224.647 65.6389 225.277 64.5128C225.458 64.1975 225.728 63.792 226.043 63.2516C226.337 62.8114 226.637 62.3759 226.944 61.9454C227.755 60.8643 228.746 60.1886 229.872 60.0083C230.998 59.7834 232.214 60.0987 233.476 60.9544C234.737 61.7652 235.502 62.7561 235.773 63.8822C236.043 65.0083 235.863 66.1344 235.187 67.3507L234.376 68.7019C234.241 68.882 233.971 69.2873 233.52 69.9179C232.71 70.954 231.764 71.5847 230.638 71.7648C229.512 71.945 228.295 71.6297 227.079 70.8189C225.818 69.9631 225.097 69.0174 224.782 67.8911ZM229.872 68.9722C230.359 68.8026 230.784 68.4883 231.088 68.0712C231.371 67.7055 231.642 67.3299 231.899 66.9452C232.145 66.5675 232.371 66.1765 232.575 65.7741C232.841 65.326 232.967 64.8081 232.935 64.2877C232.89 63.792 232.62 63.3868 232.079 63.0265C231.866 62.8762 231.622 62.7742 231.366 62.7275C231.109 62.6808 230.845 62.6906 230.592 62.7561C230.105 62.9257 229.681 63.2401 229.376 63.6571C229.196 63.9272 228.926 64.2877 228.611 64.7832C228.295 65.2334 228.07 65.6389 227.89 65.9542C227.637 66.39 227.527 66.894 227.575 67.3956C227.62 67.8911 227.89 68.2966 228.431 68.6569C228.926 69.0172 229.421 69.1524 229.872 68.9722Z" fill="white"/>
<path d="M200.009 55.4592C198.88 56.158 197.521 56.3845 196.226 56.0899L186.406 53.8375C185.444 53.6138 184.543 53.1831 183.764 52.5753C182.986 51.9674 182.349 51.1971 181.899 50.318C181.449 49.439 181.196 48.4723 181.157 47.4854C181.119 46.4984 181.296 45.515 181.677 44.6037C181.767 44.3955 181.936 44.2317 182.147 44.1479C182.358 44.0641 182.593 44.0672 182.802 44.1566C183.01 44.246 183.175 44.4143 183.259 44.6248C183.344 44.8352 183.342 45.0706 183.253 45.2795C182.959 45.9523 182.822 46.6835 182.853 47.4174C182.884 48.1512 183.083 48.8682 183.433 49.5135C183.761 50.1771 184.235 50.7573 184.821 51.21C185.406 51.6627 186.087 51.976 186.812 52.126L196.631 54.3781C197.205 54.5047 197.801 54.4799 198.362 54.3062C198.922 54.1324 199.428 53.8157 199.829 53.3872C199.906 53.3044 199.999 53.2375 200.102 53.1905C200.204 53.1434 200.315 53.117 200.428 53.1128C200.541 53.1086 200.654 53.1267 200.76 53.1661C200.866 53.2054 200.963 53.2652 201.046 53.3421C201.128 53.419 201.195 53.5115 201.242 53.6142C201.289 53.7169 201.316 53.8279 201.32 53.9409C201.324 54.0538 201.306 54.1665 201.267 54.2724C201.227 54.3783 201.168 54.4755 201.091 54.5583C200.785 54.9184 200.419 55.2232 200.009 55.4592Z" fill="#C8E1FF"/>
<path d="M74.5622 184.239C74.5622 184.51 74.472 184.78 74.472 184.915C74.4563 184.973 74.4203 185.023 74.3706 185.056C74.3209 185.089 74.2609 185.103 74.2016 185.095H62.085C62.0445 185.099 62.0035 185.094 61.9657 185.078C61.9279 185.063 61.8943 185.039 61.8677 185.008C61.8412 184.977 61.8225 184.94 61.8133 184.901C61.8041 184.861 61.8045 184.82 61.8147 184.78L62.2652 182.843L63.7516 176.537L68.5712 177.033C68.5712 177.033 68.2109 179.87 71.9947 180.951C74.3368 181.627 74.6072 183.249 74.5622 184.239Z" fill="#292561"/>
<path d="M69.9672 179.96C68.3456 178.699 68.5707 177.033 68.5707 177.033L63.7511 176.537L62.9403 179.96H69.9672Z" fill="#191937"/>
<path d="M109.156 184.239C109.156 184.51 109.066 184.78 109.066 184.915C109.05 184.973 109.014 185.023 108.964 185.056C108.915 185.089 108.855 185.103 108.796 185.095H96.6789C96.6383 185.099 96.5974 185.094 96.5596 185.078C96.5217 185.063 96.4881 185.039 96.4616 185.008C96.4351 184.977 96.4164 184.94 96.4072 184.901C96.3979 184.861 96.3984 184.82 96.4086 184.78L96.859 182.843L98.3454 176.537L103.165 177.033C103.165 177.033 102.805 179.87 106.588 180.951C108.931 181.627 109.201 183.249 109.156 184.239H109.156Z" fill="#292561"/>
<path d="M104.562 179.96C102.94 178.699 103.165 177.033 103.165 177.033L98.3458 176.537L97.535 179.96H104.562Z" fill="#191937"/>
<path d="M35.3292 141.538L43.2118 151.267L57.1753 133.565L49.653 126.809L35.3292 141.538Z" fill="#EF996D"/>
<path d="M43.2122 151.267H46.5905L48.5725 153.655L58.5722 134.917L57.3559 134.872L57.1757 133.565L43.2122 151.267Z" fill="#E58C5C"/>
<path d="M53.4366 133.43C53.3689 133.419 53.3062 133.387 53.2567 133.34C53.2353 133.32 53.2183 133.295 53.2067 133.268C53.1951 133.241 53.1891 133.212 53.1891 133.182C53.1891 133.153 53.1951 133.124 53.2067 133.097C53.2183 133.069 53.2353 133.045 53.2567 133.025C53.3019 132.979 57.851 128.926 57.5807 126.088C57.5361 125.701 57.398 125.33 57.1782 125.009C56.9585 124.687 56.6637 124.423 56.3194 124.241C56.0797 124.092 55.8097 123.999 55.5292 123.967C55.2486 123.936 54.9647 123.968 54.6981 124.061C52.2208 125.007 50.2837 130.728 50.2387 130.773C50.2299 130.799 50.2158 130.824 50.1974 130.845C50.179 130.866 50.1567 130.884 50.1316 130.896C50.0809 130.921 50.0222 130.926 49.9684 130.908C49.9146 130.89 49.8702 130.851 49.8448 130.801C49.8195 130.75 49.8153 130.691 49.8332 130.637C49.9234 130.412 51.8603 124.647 54.5629 123.656C54.8937 123.526 55.2511 123.479 55.6043 123.518C55.9574 123.557 56.2957 123.682 56.59 123.881C57.4907 124.421 57.9862 125.142 58.0764 126.088C58.3467 129.196 53.7971 133.25 53.572 133.43C53.572 133.385 53.4816 133.43 53.4366 133.43Z" fill="#131514"/>
<path d="M73.4355 112.439C70.5977 112.169 67.7147 111.133 65.7331 109.106C63.751 107.034 62.8952 103.791 64.1565 101.223C65.0572 99.3768 66.9941 97.8902 66.9041 95.8631C66.8589 94.3767 65.7331 93.0705 65.778 91.5841C65.868 90.2777 66.9041 89.1968 68.0752 88.6563C69.2463 88.1159 70.5977 88.0257 71.9041 87.9355C73.2106 87.8453 74.5616 87.7104 75.7327 87.1248C79.2011 85.3231 79.7865 80.0529 83.3901 78.5213C85.1469 77.8008 87.1739 78.161 88.8404 79.062C90.507 79.963 91.8582 81.3592 93.1644 82.7104C94.5608 84.1518 95.9572 85.6384 96.5879 87.53C97.0079 88.8002 97.0237 90.1694 96.6331 91.449C96.2725 92.62 95.5969 93.9263 96.2276 95.0074C96.813 96.0435 98.3446 96.3138 98.84 97.3947C99.4254 98.7012 98.1194 100.142 98.2546 101.584C98.3895 103.115 100.056 104.061 100.417 105.548C100.777 107.214 99.2455 108.746 97.624 109.151C96.0024 109.556 94.2455 109.196 92.579 109.016C89.9665 108.746 86.9937 108.926 84.5162 109.962C83.5703 110.367 82.8947 111.043 81.8586 111.448C80.5981 111.889 79.3021 112.221 77.9848 112.439C76.4714 112.574 74.9489 112.574 73.4355 112.439Z" fill="#7C3A3A"/>
<path d="M107.624 102.62C107.624 102.62 111.903 95.8182 113.48 99.5568C115.056 103.295 108.84 105.187 108.84 105.187L107.624 102.62Z" fill="#FFD1C4"/>
<path d="M88.8866 93.6107V105.232C88.8866 105.232 92.6704 113.745 95.7783 114.511C96.2288 114.646 96.8594 114.511 97.625 114.241C101.904 112.664 109.787 105.863 109.787 105.863L107.715 102.034L97.2197 105.863C95.0125 95.6827 88.8866 93.6107 88.8866 93.6107Z" fill="#BA93DF"/>
<path d="M88.8866 98.2949V105.277C88.8866 105.277 92.6704 113.79 95.7783 114.556C96.2288 114.691 96.8594 114.556 97.625 114.285L97.7151 114.195C98.3006 113.474 97.9855 112.349 97.2647 111.718C96.589 111.087 95.6431 110.817 94.7874 110.547C93.8864 110.276 92.9857 109.871 92.445 109.15C91.8596 108.339 91.8144 107.213 91.8596 106.222C91.8596 104.285 91.9046 102.304 91.9046 100.367C91.9046 99.7813 92.2199 98.3848 91.6342 98.1597C91.0486 97.9346 89.6974 98.3399 89.0667 98.3848C88.9766 98.2497 88.9316 98.2949 88.8866 98.2949Z" fill="#9859CD"/>
<path d="M56.4549 170.32V170.816C56.5901 173.608 57.626 176.221 60.0583 178.248H75.1029C74.6075 175.86 74.5175 173.068 74.7876 170.23C74.7803 170.093 74.7956 169.956 74.8328 169.825C75.373 164.059 77.0398 157.573 78.9317 152.168C79.3369 150.906 79.5623 150.591 80.8235 146.222L80.9585 145.816C82.0846 141.852 83.3008 137.213 84.2918 133.204L84.6523 134.24L84.7872 134.645L86.7243 140.186L86.8592 140.591L88.8413 146.267C88.8413 146.312 90.3277 150.501 90.2375 150.23C90.2375 150.23 90.1026 150.996 89.9674 152.257C89.7873 153.834 89.5619 155.951 89.4719 157.933V158.338C89.2916 161.942 89.3368 166.041 89.9222 169.599C89.9674 169.734 89.9674 169.87 90.0124 170.005C90.7782 174.014 92.3095 177.302 95.1923 178.248H112.129C111.318 176.311 110.552 174.464 109.877 172.707C108.39 168.608 106.453 163.969 104.291 155.456C104.24 155.326 104.209 155.189 104.201 155.05C103.706 153.113 103.3 151.312 102.895 149.6C102.85 149.465 102.85 149.33 102.805 149.195C101.724 144.42 101.769 144.42 101.453 143.294C98.7058 132.753 90.1473 113.07 90.1473 113.024H77.6252C69.923 118.835 70.0129 135.321 64.6079 148.339C63.4366 151.176 60.8693 155.501 58.9774 159.96L58.8423 160.32C58.1948 161.843 57.6529 163.408 57.2205 165.005C57.1692 165.134 57.1389 165.271 57.1305 165.41C56.6692 167.006 56.4418 168.659 56.4549 170.32Z" fill="#FF9A05"/>
<path d="M84.1562 133.565C87.2193 128.114 87.2193 120.682 83.976 111.223C83.976 111.223 86.4985 113.43 87.5796 119.376C88.6607 125.322 88.8409 146.267 88.8409 146.267L84.1562 133.565Z" fill="#EC8400"/>
<path d="M75.7331 99.6925C76.0934 104.918 77.625 113.025 77.625 113.025H90.057C90.057 113.025 93.2101 96.81 90.9129 94.7377C87.7146 91.8099 77.2645 92.6207 75.9133 95.7289C75.598 96.3595 75.598 97.8459 75.7331 99.6925Z" fill="#BA93DF"/>
<path d="M75.733 99.6924C76.0933 104.918 77.6249 113.025 77.6249 113.025H83.2553C83.3005 112.98 83.3006 112.935 83.3453 112.89C83.5255 112.35 83.2553 111.719 82.8498 111.359C82.3824 111.017 81.8433 110.786 81.2733 110.683C80.7049 110.576 80.1574 110.378 79.6517 110.098C78.751 109.512 78.2555 108.431 78.2103 107.35C78.1651 106.269 78.4807 105.233 78.8862 104.197C79.2465 103.206 79.6969 102.215 79.9221 101.134C80.1098 100.068 80.0482 98.9736 79.7419 97.9357C79.5618 97.3051 79.2914 95.9989 78.4355 96.6745C77.7601 97.2151 77.2194 98.1161 76.634 98.7465C76.3187 99.0618 76.0483 99.3771 75.733 99.6924Z" fill="#9859CD"/>
<path d="M57.3556 120.457C57.3556 120.457 51.2297 123.925 54.3379 126.538C57.446 129.151 60.9142 121.944 60.9142 121.944L57.3556 120.457Z" fill="#FFD1C4"/>
<path d="M78.0302 93.9715C78.0302 93.9715 69.9224 97.4849 64.6523 108.205C59.3822 118.925 56.4542 120.547 56.4542 120.547L61.4092 123.385C61.4092 123.385 71.2287 110.367 71.8141 109.376C72.4447 108.34 82.6697 100.548 78.0302 93.9715Z" fill="#BA93DF"/>
<path d="M81.1839 87.8004C81.1839 88.5662 82.2198 93.0255 82.2198 93.0255C82.2198 93.7461 85.9583 93.7461 85.9583 93.0255V90.8633C85.9583 90.8633 89.2017 91.3138 89.9223 90.6832C90.4179 90.2327 91.4089 85.5932 90.2376 82.5755C89.6521 80.9989 88.4361 79.8728 86.3189 79.9628C81.9497 80.1429 81.1839 83.4762 81.1389 85.7736C81.0968 86.4492 81.1119 87.1272 81.1839 87.8004Z" fill="#FFD1C4"/>
<path d="M80.8687 85.7295C80.8687 85.7295 85.2831 87.2609 86.9046 85.324C88.5712 83.342 90.1028 82.351 90.4631 82.351C89.8324 80.7295 88.5712 79.5132 86.319 79.6034C81.7245 79.8285 80.9137 83.342 80.8687 85.7293V85.7295Z" fill="#7C3A3A"/>
<path d="M73.3907 118.52C74.4718 118.25 75.5529 117.979 76.679 117.799C81.2004 116.994 85.8348 117.071 90.3272 118.024C91.003 118.159 91.6784 118.34 92.3542 118.52C92.3019 118.367 92.2417 118.216 92.1738 118.069C91.5884 117.934 91.0478 117.754 90.4174 117.619C85.8793 116.666 81.2008 116.589 76.634 117.394C75.5979 117.574 74.6519 117.799 73.661 118.024C73.5615 118.184 73.4712 118.35 73.3907 118.52ZM71.0485 124.916C71.3804 124.832 71.7107 124.742 72.0394 124.646C73.5258 124.24 75.0574 123.835 76.634 123.565C81.1554 122.76 85.7898 122.836 90.2822 123.79C91.5434 124.06 92.7143 124.421 93.8856 124.736C94.2459 124.826 94.6064 124.961 94.9667 125.051C94.9215 124.916 94.8315 124.736 94.7865 124.601C94.5162 124.511 94.2459 124.466 94.0207 124.376C92.8497 124.06 91.6784 123.7 90.4171 123.43C85.8791 122.476 81.2005 122.4 76.6338 123.204C75.0699 123.486 73.5215 123.846 71.9945 124.286C71.7447 124.367 71.4885 124.427 71.2287 124.466C71.1419 124.604 71.0809 124.756 71.0485 124.916ZM69.5169 131.087C70.3729 130.862 71.2737 130.637 72.0847 130.456C73.5708 130.051 75.1024 129.646 76.679 129.375C81.2004 128.57 85.8348 128.647 90.3272 129.601C91.5884 129.871 92.7595 130.231 93.9305 130.547C94.9667 130.862 96.0478 131.177 97.1289 131.402C97.2188 131.448 97.354 131.448 97.444 131.493C97.4036 131.335 97.3431 131.184 97.2638 131.042H97.1739C96.0928 130.772 95.0117 130.457 93.9755 130.186C92.8047 129.871 91.6334 129.51 90.3721 129.24C85.8341 128.287 81.1556 128.211 76.5888 129.015C75.0249 129.296 73.4763 129.657 71.9493 130.096C71.1837 130.321 70.3727 130.501 69.5619 130.682C69.5619 130.772 69.5169 130.952 69.5169 131.087ZM90.4171 134.961C88.502 134.561 86.5598 134.305 84.6065 134.195L84.7417 134.6C86.621 134.677 88.4899 134.918 90.3269 135.321C91.5882 135.591 92.7595 135.952 93.9305 136.267C94.9667 136.582 96.0478 136.898 97.1289 137.123C97.9394 137.303 98.7954 137.483 99.6514 137.618C99.6062 137.483 99.561 137.348 99.516 137.168C98.7502 137.033 97.9846 136.898 97.2188 136.717C96.1377 136.447 95.0566 136.132 94.0205 135.862C92.8497 135.591 91.6784 135.231 90.4171 134.961ZM68.0755 137.168H68.1657C69.5169 136.898 70.8232 136.537 72.0844 136.222C73.5708 135.817 75.1024 135.411 76.679 135.141C79.0587 134.732 81.4719 134.551 83.886 134.6C83.9372 134.471 83.9676 134.334 83.9759 134.195C81.5011 134.101 79.0235 134.282 76.5888 134.736C74.9672 135.006 73.4356 135.456 71.9493 135.817C70.7332 136.132 69.472 136.492 68.1655 136.762C68.1142 136.892 68.0839 137.029 68.0755 137.168ZM90.4171 140.771C89.1986 140.503 87.9654 140.308 86.7238 140.186L86.8587 140.591C88.0748 140.726 89.2011 140.907 90.3272 141.132C91.5884 141.402 92.7595 141.762 93.9305 142.078C94.9667 142.393 96.0478 142.708 97.1289 142.934C98.5521 143.272 99.9968 143.513 101.453 143.654C101.402 143.525 101.371 143.388 101.363 143.249C99.9698 143.082 98.5865 142.841 97.2188 142.528C96.1377 142.258 95.0566 141.943 94.0207 141.672C92.8497 141.402 91.6784 141.042 90.4171 140.771ZM66.409 143.249C67.0007 143.181 67.5875 143.076 68.1657 142.934C69.5169 142.663 70.8232 142.303 72.0844 141.988C73.5708 141.582 75.1024 141.177 76.679 140.907C78.5703 140.588 80.4822 140.408 82.3996 140.366C82.4509 140.237 82.4812 140.1 82.4895 139.961C80.5101 139.958 78.5347 140.139 76.5888 140.501C74.9672 140.771 73.4356 141.222 71.9493 141.582C70.688 141.897 69.3818 142.258 68.0306 142.528C67.5801 142.618 67.0846 142.708 66.499 142.798C66.4953 142.953 66.4649 143.105 66.409 143.249V143.249ZM90.4171 146.537C89.9217 146.402 89.3812 146.312 88.8408 146.222L88.9757 146.672L90.3272 146.942C91.5884 147.213 92.7595 147.573 93.9305 147.888C94.9667 148.204 96.0478 148.519 97.1289 148.744C98.9808 149.174 100.863 149.461 102.759 149.6C102.714 149.465 102.714 149.33 102.669 149.195C100.836 149.048 99.0151 148.777 97.2188 148.384C96.1377 148.114 95.0566 147.798 94.0205 147.528C92.8497 147.168 91.6784 146.807 90.4171 146.537ZM64.2018 149.24C65.532 149.156 66.8558 148.99 68.1657 148.744C69.5169 148.474 70.8232 148.114 72.0844 147.798C73.5708 147.393 75.1024 146.987 76.679 146.717C78.0356 146.48 79.4038 146.315 80.7778 146.222C80.823 146.087 80.8681 145.952 80.913 145.816C79.4775 145.89 78.0483 146.055 76.634 146.312C75.0701 146.593 73.5215 146.954 71.9945 147.393C70.7332 147.708 69.4268 148.069 68.0755 148.339C66.8561 148.581 65.6225 148.747 64.3822 148.834C64.3035 148.96 64.2428 149.097 64.2018 149.24ZM89.9669 152.258C89.9669 152.393 89.9217 152.528 89.9217 152.663C90.0568 152.708 90.192 152.708 90.3272 152.753C91.5884 153.023 92.7595 153.384 93.9305 153.699C94.9667 154.014 96.0478 154.33 97.1289 154.555C99.456 155.064 101.821 155.381 104.2 155.501C104.149 155.371 104.119 155.234 104.111 155.095C101.79 155.01 99.4831 154.708 97.2188 154.194C96.1377 153.924 95.0566 153.609 94.0205 153.339C92.8497 153.023 91.6784 152.663 90.4171 152.393C90.2823 152.307 90.1265 152.26 89.9669 152.258ZM61.319 155.005C63.9315 155.231 66.5892 154.825 68.1655 154.51C69.5172 154.239 70.8232 153.879 72.0844 153.564C73.5708 153.159 75.1024 152.753 76.679 152.483C77.3995 152.348 78.1653 152.258 78.8862 152.167L79.0211 151.762C78.2045 151.838 77.3926 151.958 76.589 152.122C75.025 152.403 73.4764 152.764 71.9493 153.203C70.688 153.519 69.3818 153.879 68.0306 154.149C65.8694 154.601 63.6585 154.767 61.4542 154.645C61.4017 154.762 61.3566 154.882 61.319 155.005ZM89.4262 157.933V158.338C89.7415 158.384 90.0118 158.474 90.3272 158.519C91.5884 158.789 92.7595 159.149 93.9305 159.465C94.9667 159.78 96.0478 160.095 97.1289 160.32C99.9835 160.957 102.897 161.289 105.822 161.311L105.687 160.906C102.838 160.898 99.999 160.581 97.2188 159.96C96.1377 159.69 95.0566 159.375 94.0205 159.104C92.8497 158.789 91.6334 158.428 90.4171 158.158C90.0933 158.057 89.762 157.982 89.4262 157.933ZM58.7965 160.32C58.8417 160.32 58.8417 160.32 58.8867 160.366C62.1298 161.311 66.0487 160.726 68.1205 160.32C69.472 160.05 70.7782 159.69 72.0394 159.374C73.5258 158.969 75.0574 158.564 76.634 158.293C76.7239 158.293 76.8591 158.248 76.9943 158.248C77.0395 158.113 77.0842 157.978 77.1294 157.798C76.9491 157.843 76.7689 157.843 76.5888 157.888C74.9672 158.158 73.4356 158.609 71.9493 158.969C70.688 159.284 69.3818 159.645 68.0306 159.915C66.0035 160.32 62.1298 160.906 58.9767 159.96H58.9317L58.7965 160.32ZM90.4171 163.924C90.0568 163.834 89.6965 163.789 89.3362 163.699V164.104C89.6516 164.149 89.9669 164.239 90.3272 164.284C91.5884 164.555 92.7595 164.915 93.9305 165.23C94.9667 165.545 96.0478 165.861 97.1289 166.086C100.041 166.744 103.017 167.076 106.002 167.077C106.543 167.077 107.129 167.077 107.669 167.032L107.534 166.627C104.054 166.774 100.57 166.456 97.1739 165.681C96.0928 165.41 95.0117 165.095 93.9755 164.825C92.8497 164.555 91.6784 164.194 90.4171 163.924ZM57.085 165.41C57.6518 165.728 58.2573 165.97 58.8865 166.131C62.13 167.077 66.0487 166.491 68.1205 166.086C69.472 165.816 70.7782 165.455 72.0394 165.14C73.1655 164.825 74.3366 164.509 75.5979 164.284C75.6431 164.149 75.6431 164.014 75.688 163.879C74.3816 164.149 73.1655 164.464 71.9495 164.78C70.6882 165.095 69.3818 165.456 68.0306 165.726C66.0035 166.131 62.1298 166.672 58.9767 165.771C58.3452 165.596 57.7395 165.338 57.1752 165.005C57.1667 165.144 57.1362 165.281 57.0848 165.41H57.085ZM90.4171 169.69C90.2414 169.638 90.06 169.607 89.8769 169.599C89.9217 169.735 89.9217 169.87 89.9669 170.005C90.102 170.05 90.237 170.05 90.3272 170.095C91.5884 170.365 92.7595 170.725 93.9305 171.041C94.9667 171.356 96.0478 171.671 97.1289 171.897C100.041 172.555 103.017 172.887 106.002 172.888C107.266 172.895 108.529 172.835 109.786 172.707L109.651 172.302C105.507 172.662 101.048 172.392 97.2188 171.491C96.1377 171.221 95.0566 170.906 94.0205 170.635C92.8497 170.32 91.6784 169.96 90.4171 169.69ZM56.4544 170.32V170.816C57.2076 171.304 58.0265 171.684 58.8865 171.942C62.13 172.888 66.0487 172.302 68.1205 171.896C69.472 171.626 70.7782 171.266 72.0394 170.951C72.9404 170.725 73.7962 170.5 74.7421 170.275C74.7348 170.138 74.75 170.001 74.7871 169.87C73.8411 170.095 72.8952 170.32 71.9493 170.59C70.688 170.906 69.3818 171.266 68.0306 171.536C66.0035 171.942 62.1298 172.482 58.9767 171.581C58.073 171.3 57.2213 170.874 56.4544 170.32Z" fill="#EC8400"/>
<path d="M85.9124 90.8634C85.9124 90.8634 84.0657 90.4129 83.0748 89.6022C83.0748 89.6022 84.7413 91.8543 85.9124 92.0795V90.8634Z" fill="#F1C0BA"/>
<path d="M111.814 96.9449L108.841 105.819C108.751 106.134 108.886 106.359 109.201 106.359H114.381C114.541 106.349 114.694 106.293 114.823 106.197C114.951 106.101 115.048 105.969 115.102 105.819L118.075 96.9449C118.165 96.6296 118.03 96.4045 117.714 96.4045H112.534C112.379 96.4291 112.233 96.4912 112.107 96.5854C111.981 96.6796 111.881 96.803 111.814 96.9449Z" fill="#5B6F8B"/>
<path d="M258.701 157.122V166.401C258.701 166.454 258.691 166.507 258.671 166.556C258.65 166.606 258.62 166.65 258.583 166.688C258.545 166.726 258.5 166.756 258.451 166.776C258.402 166.796 258.349 166.807 258.295 166.806H221.81C221.757 166.807 221.704 166.796 221.655 166.776C221.605 166.756 221.561 166.726 221.523 166.688C221.485 166.65 221.455 166.606 221.435 166.556C221.415 166.507 221.404 166.454 221.405 166.401V157.122C221.404 157.069 221.415 157.016 221.435 156.967C221.455 156.917 221.485 156.873 221.523 156.835C221.561 156.797 221.605 156.767 221.655 156.747C221.704 156.727 221.757 156.717 221.81 156.717H258.295C258.349 156.717 258.402 156.727 258.451 156.747C258.5 156.767 258.545 156.797 258.583 156.835C258.62 156.873 258.65 156.917 258.67 156.967C258.691 157.016 258.701 157.069 258.701 157.122Z" fill="#FA5814"/>
<path d="M255.908 166.762V184.284C255.905 184.546 255.8 184.797 255.615 184.982C255.429 185.168 255.179 185.273 254.917 185.275H225.143C224.881 185.273 224.63 185.168 224.445 184.982C224.259 184.797 224.154 184.546 224.152 184.284V166.762H255.908Z" fill="#FA5814"/>
<path d="M235.549 166.762H244.512V185.275H235.549V166.762Z" fill="#FDD333"/>
<path d="M235.549 156.717H244.512V166.807H235.549V156.717Z" fill="#FDD333"/>
<path d="M240.188 156.718H238.161C236.315 153.069 233.702 151.808 231.675 151.448C230.62 151.229 229.532 151.229 228.477 151.448C228.589 150.922 228.821 150.429 229.153 150.007C230.323 148.475 232.35 147.979 234.152 148.565C240.008 150.412 240.188 156.718 240.188 156.718H240.188Z" fill="#FCC800"/>
<path d="M234.782 156.718H232.395C228.251 154.736 228.476 151.447 228.476 151.447C229.531 151.228 230.62 151.228 231.675 151.447C231.99 154.736 234.782 156.718 234.782 156.718Z" fill="#E3B400"/>
<path d="M239.918 156.718H241.945C243.792 153.069 246.404 151.808 248.431 151.448C249.486 151.229 250.575 151.229 251.629 151.448C251.517 150.922 251.286 150.429 250.954 150.007C249.783 148.475 247.756 147.979 245.954 148.565C240.098 150.412 239.918 156.718 239.918 156.718Z" fill="#FCC800"/>
<path d="M245.278 156.718H247.665C251.809 154.736 251.584 151.447 251.584 151.447C250.529 151.228 249.441 151.228 248.386 151.447C248.071 154.736 245.278 156.718 245.278 156.718Z" fill="#E3B400"/>
<g opacity="0.15">
<path d="M235.549 166.762H244.513V168.789H235.549V166.762Z" fill="#131514"/>
</g>
<g opacity="0.15">
<path d="M244.511 166.762H255.907V168.789H244.511V166.762Z" fill="#131514"/>
</g>
<g opacity="0.15">
<path d="M224.152 166.762H235.548V168.789H224.152V166.762Z" fill="#131514"/>
</g>
</svg>
