<svg width="18" height="17" viewBox="0 0 18 17" fill="none" xmlns="http://www.w3.org/2000/svg">
<path d="M8.74992 1.4974H4.83325C3.43312 1.4974 2.73305 1.4974 2.19828 1.76988C1.72787 2.00956 1.34542 2.39201 1.10574 2.86242C0.833252 3.3972 0.833252 4.09726 0.833252 5.4974V12.4974C0.833252 13.8975 0.833252 14.5976 1.10574 15.1324C1.34542 15.6028 1.72787 15.9852 2.19828 16.2249C2.73305 16.4974 3.43312 16.4974 4.83325 16.4974H12.4999C13.2749 16.4974 13.6624 16.4974 13.9803 16.4122C14.843 16.181 15.5169 15.5072 15.7481 14.6444C15.8333 14.3265 15.8333 13.939 15.8333 13.1641M14.1666 5.66406V0.664062M11.6666 3.16406H16.6666M7.08325 6.08073C7.08325 7.0012 6.33706 7.7474 5.41659 7.7474C4.49611 7.7474 3.74992 7.0012 3.74992 6.08073C3.74992 5.16025 4.49611 4.41406 5.41659 4.41406C6.33706 4.41406 7.08325 5.16025 7.08325 6.08073ZM10.8249 8.92918L3.77588 15.3374C3.37939 15.6979 3.18114 15.8781 3.16361 16.0342C3.14841 16.1695 3.2003 16.3038 3.30257 16.3937C3.42057 16.4974 3.68849 16.4974 4.22432 16.4974H12.0466C13.2459 16.4974 13.8455 16.4974 14.3165 16.2959C14.9078 16.043 15.3788 15.5719 15.6318 14.9807C15.8333 14.5097 15.8333 13.91 15.8333 12.7107C15.8333 12.3072 15.8333 12.1054 15.7891 11.9175C15.7337 11.6814 15.6274 11.4602 15.4776 11.2694C15.3585 11.1176 15.2009 10.9915 14.8858 10.7394L12.5548 8.87461C12.2394 8.62232 12.0817 8.49617 11.9081 8.45165C11.755 8.41242 11.594 8.4175 11.4437 8.4663C11.2732 8.52168 11.1238 8.65752 10.8249 8.92918Z" stroke="#8A226F" stroke-linecap="round" stroke-linejoin="round"/>
</svg>
