<svg width="12" height="12" viewBox="0 0 12 12" fill="none" xmlns="http://www.w3.org/2000/svg">
<path d="M5.47994 1.3805C5.61439 1.10812 5.68162 0.971931 5.77288 0.928418C5.85228 0.89056 5.94453 0.89056 6.02393 0.928418C6.1152 0.971931 6.18242 1.10812 6.31687 1.3805L7.59243 3.96465C7.63213 4.04506 7.65197 4.08527 7.68098 4.11649C7.70666 4.14413 7.73745 4.16652 7.77167 4.18243C7.8103 4.2004 7.85467 4.20688 7.9434 4.21985L10.7966 4.6369C11.0971 4.68081 11.2473 4.70277 11.3169 4.77616C11.3773 4.84001 11.4058 4.92774 11.3943 5.01494C11.381 5.11516 11.2723 5.22109 11.0548 5.43296L8.99091 7.44315C8.92657 7.50581 8.8944 7.53714 8.87365 7.57442C8.85527 7.60743 8.84348 7.64369 8.83893 7.6812C8.83379 7.72356 8.84138 7.76782 8.85657 7.85633L9.34354 10.6956C9.3949 10.9951 9.42058 11.1448 9.37232 11.2337C9.33033 11.311 9.25569 11.3652 9.16918 11.3813C9.06976 11.3997 8.9353 11.329 8.66638 11.1876L6.11562 9.84614C6.03614 9.80434 5.9964 9.78344 5.95454 9.77523C5.91747 9.76796 5.87934 9.76796 5.84228 9.77523C5.80041 9.78344 5.76067 9.80434 5.6812 9.84614L3.13044 11.1876C2.86151 11.329 2.72705 11.3997 2.62763 11.3813C2.54113 11.3652 2.46649 11.311 2.42449 11.2337C2.37623 11.1448 2.40191 10.9951 2.45327 10.6956L2.94025 7.85633C2.95543 7.76782 2.96302 7.72356 2.95788 7.6812C2.95334 7.64369 2.94155 7.60743 2.92317 7.57442C2.90241 7.53714 2.87024 7.50581 2.80591 7.44315L0.742056 5.43296C0.524534 5.22109 0.415772 5.11516 0.402537 5.01494C0.391022 4.92774 0.41947 4.84001 0.47996 4.77616C0.549484 4.70277 0.699713 4.68081 1.00017 4.6369L3.85341 4.21985C3.94214 4.20688 3.98651 4.2004 4.02515 4.18243C4.05936 4.16652 4.09016 4.14413 4.11584 4.11649C4.14484 4.08527 4.16469 4.04506 4.20438 3.96465L5.47994 1.3805Z" fill="white"/>
<path d="M5.47994 1.3805C5.61439 1.10812 5.68162 0.971931 5.77288 0.928418C5.85228 0.89056 5.94453 0.89056 6.02393 0.928418C6.1152 0.971931 6.18242 1.10812 6.31687 1.3805L7.59243 3.96465C7.63213 4.04506 7.65197 4.08527 7.68098 4.11649C7.70666 4.14413 7.73745 4.16652 7.77167 4.18243C7.8103 4.2004 7.85467 4.20688 7.9434 4.21985L10.7966 4.6369C11.0971 4.68081 11.2473 4.70277 11.3169 4.77616C11.3773 4.84001 11.4058 4.92774 11.3943 5.01494C11.381 5.11516 11.2723 5.22109 11.0548 5.43296L8.99091 7.44315C8.92657 7.50581 8.8944 7.53714 8.87365 7.57442C8.85527 7.60743 8.84348 7.64369 8.83893 7.6812C8.83379 7.72356 8.84138 7.76782 8.85657 7.85633L9.34354 10.6956C9.3949 10.9951 9.42058 11.1448 9.37232 11.2337C9.33033 11.311 9.25569 11.3652 9.16918 11.3813C9.06976 11.3997 8.9353 11.329 8.66638 11.1876L6.11562 9.84614C6.03614 9.80434 5.9964 9.78344 5.95454 9.77523C5.91747 9.76796 5.87934 9.76796 5.84228 9.77523C5.80041 9.78344 5.76067 9.80434 5.6812 9.84614L3.13044 11.1876C2.86151 11.329 2.72705 11.3997 2.62763 11.3813C2.54113 11.3652 2.46649 11.311 2.42449 11.2337C2.37623 11.1448 2.40191 10.9951 2.45327 10.6956L2.94025 7.85633C2.95543 7.76782 2.96302 7.72356 2.95788 7.6812C2.95334 7.64369 2.94155 7.60743 2.92317 7.57442C2.90241 7.53714 2.87024 7.50581 2.80591 7.44315L0.742056 5.43296C0.524534 5.22109 0.415772 5.11516 0.402537 5.01494C0.391022 4.92774 0.41947 4.84001 0.47996 4.77616C0.549484 4.70277 0.699713 4.68081 1.00017 4.6369L3.85341 4.21985C3.94214 4.20688 3.98651 4.2004 4.02515 4.18243C4.05936 4.16652 4.09016 4.14413 4.11584 4.11649C4.14484 4.08527 4.16469 4.04506 4.20438 3.96465L5.47994 1.3805Z" fill="black" fill-opacity="0.9"/>
</svg>
