<svg width="18" height="16" viewBox="0 0 18 16" fill="none" xmlns="http://www.w3.org/2000/svg">
<path d="M16.2297 8.50617C16.4331 8.3318 16.5348 8.24461 16.5721 8.14086C16.6048 8.0498 16.6048 7.9502 16.5721 7.85914C16.5348 7.75539 16.4331 7.6682 16.2297 7.49383L9.17076 1.44331C8.82057 1.14315 8.64547 0.993063 8.49723 0.989386C8.3684 0.986191 8.24533 1.04279 8.16391 1.14269C8.07023 1.25764 8.07023 1.48825 8.07023 1.94948V5.52886C6.29133 5.84007 4.66323 6.74146 3.45332 8.09489C2.13425 9.57043 1.40459 11.48 1.40356 13.4591V13.9691C2.27802 12.9157 3.36982 12.0638 4.6042 11.4716C5.69248 10.9495 6.86891 10.6403 8.07023 10.5588V14.0505C8.07023 14.5117 8.07023 14.7424 8.16391 14.8573C8.24533 14.9572 8.3684 15.0138 8.49723 15.0106C8.64547 15.0069 8.82057 14.8569 9.17076 14.5567L16.2297 8.50617Z" stroke="white" stroke-linecap="round" stroke-linejoin="round"/>
<path d="M16.2297 8.50617C16.4331 8.3318 16.5348 8.24461 16.5721 8.14086C16.6048 8.0498 16.6048 7.9502 16.5721 7.85914C16.5348 7.75539 16.4331 7.6682 16.2297 7.49383L9.17076 1.44331C8.82057 1.14315 8.64547 0.993063 8.49723 0.989386C8.3684 0.986191 8.24533 1.04279 8.16391 1.14269C8.07023 1.25764 8.07023 1.48825 8.07023 1.94948V5.52886C6.29133 5.84007 4.66323 6.74146 3.45332 8.09489C2.13425 9.57043 1.40459 11.48 1.40356 13.4591V13.9691C2.27802 12.9157 3.36982 12.0638 4.6042 11.4716C5.69248 10.9495 6.86891 10.6403 8.07023 10.5588V14.0505C8.07023 14.5117 8.07023 14.7424 8.16391 14.8573C8.24533 14.9572 8.3684 15.0138 8.49723 15.0106C8.64547 15.0069 8.82057 14.8569 9.17076 14.5567L16.2297 8.50617Z" stroke="black" stroke-opacity="0.6" stroke-linecap="round" stroke-linejoin="round"/>
</svg>
