<svg width="14" height="15" viewBox="0 0 14 15" fill="none" xmlns="http://www.w3.org/2000/svg">
<mask id="mask0_2032_1023" style="mask-type:alpha" maskUnits="userSpaceOnUse" x="0" y="0" width="14" height="15">
<rect y="0.5" width="14" height="14" fill="#D9D9D9"/>
</mask>
<g mask="url(#mask0_2032_1023)">
<path d="M10.5059 9.73818C11.3552 10.1648 12.0833 10.8495 12.6148 11.7056C12.72 11.8752 12.7727 11.9599 12.7908 12.0773C12.8278 12.3159 12.6647 12.6091 12.4425 12.7035C12.3332 12.75 12.2102 12.75 11.9642 12.75M9.33922 7.22714C10.2036 6.7976 10.7976 5.90567 10.7976 4.875C10.7976 3.84433 10.2036 2.9524 9.33922 2.52286M8.17255 4.875C8.17255 6.32475 6.9973 7.5 5.54755 7.5C4.09781 7.5 2.92255 6.32475 2.92255 4.875C2.92255 3.42525 4.09781 2.25 5.54755 2.25C6.9973 2.25 8.17255 3.42525 8.17255 4.875ZM1.49877 11.5474C2.42878 10.151 3.89635 9.25 5.54755 9.25C7.19875 9.25 8.66632 10.151 9.59634 11.5474C9.80008 11.8533 9.90195 12.0062 9.89022 12.2016C9.88109 12.3538 9.78136 12.54 9.6598 12.6319C9.50367 12.75 9.28895 12.75 8.85951 12.75H2.23559C1.80615 12.75 1.59143 12.75 1.43531 12.6319C1.31375 12.54 1.21402 12.3538 1.20489 12.2016C1.19316 12.0062 1.29503 11.8533 1.49877 11.5474Z" stroke="white" stroke-linecap="round" stroke-linejoin="round"/>
<path d="M10.5059 9.73818C11.3552 10.1648 12.0833 10.8495 12.6148 11.7056C12.72 11.8752 12.7727 11.9599 12.7908 12.0773C12.8278 12.3159 12.6647 12.6091 12.4425 12.7035C12.3332 12.75 12.2102 12.75 11.9642 12.75M9.33922 7.22714C10.2036 6.7976 10.7976 5.90567 10.7976 4.875C10.7976 3.84433 10.2036 2.9524 9.33922 2.52286M8.17255 4.875C8.17255 6.32475 6.9973 7.5 5.54755 7.5C4.09781 7.5 2.92255 6.32475 2.92255 4.875C2.92255 3.42525 4.09781 2.25 5.54755 2.25C6.9973 2.25 8.17255 3.42525 8.17255 4.875ZM1.49877 11.5474C2.42878 10.151 3.89635 9.25 5.54755 9.25C7.19875 9.25 8.66632 10.151 9.59634 11.5474C9.80008 11.8533 9.90195 12.0062 9.89022 12.2016C9.88109 12.3538 9.78136 12.54 9.6598 12.6319C9.50367 12.75 9.28895 12.75 8.85951 12.75H2.23559C1.80615 12.75 1.59143 12.75 1.43531 12.6319C1.31375 12.54 1.21402 12.3538 1.20489 12.2016C1.19316 12.0062 1.29503 11.8533 1.49877 11.5474Z" stroke="black" stroke-opacity="0.9" stroke-linecap="round" stroke-linejoin="round"/>
</g>
</svg>
