<svg width="18" height="16" viewBox="0 0 18 16" fill="none" xmlns="http://www.w3.org/2000/svg">
<path d="M12.426 0.5C15.3612 0.5 17.3334 3.29375 17.3334 5.9C17.3334 11.1781 9.14823 15.5 9.00008 15.5C8.85193 15.5 0.666748 11.1781 0.666748 5.9C0.666748 3.29375 2.63897 0.5 5.57416 0.5C7.25934 0.5 8.36119 1.35312 9.00008 2.10312C9.63897 1.35312 10.7408 0.5 12.426 0.5Z" stroke="white" stroke-linecap="round" stroke-linejoin="round"/>
<path d="M12.426 0.5C15.3612 0.5 17.3334 3.29375 17.3334 5.9C17.3334 11.1781 9.14823 15.5 9.00008 15.5C8.85193 15.5 0.666748 11.1781 0.666748 5.9C0.666748 3.29375 2.63897 0.5 5.57416 0.5C7.25934 0.5 8.36119 1.35312 9.00008 2.10312C9.63897 1.35312 10.7408 0.5 12.426 0.5Z" stroke="black" stroke-opacity="0.6" stroke-linecap="round" stroke-linejoin="round"/>
</svg>
