<svg width="15" height="16" viewBox="0 0 15 16" fill="none" xmlns="http://www.w3.org/2000/svg">
<path fill-rule="evenodd" clip-rule="evenodd" d="M6.18798 6.30377V5.6798C5.97137 5.64914 5.75297 5.63321 5.5342 5.63218C2.85906 5.63218 0.682667 7.80857 0.682667 10.4833C0.682667 12.124 1.5028 13.5763 2.75389 14.4546C1.91618 13.5589 1.45046 12.3782 1.45113 11.1519C1.45113 8.51533 3.56559 6.36533 6.18798 6.30377Z" fill="#00F2EA"/>
<path fill-rule="evenodd" clip-rule="evenodd" d="M6.30286 13.3651C7.49642 13.3651 8.47011 12.4158 8.51444 11.2327L8.51847 0.671373H10.4482C10.407 0.450861 10.3862 0.227031 10.3859 0.00270367H7.75039L7.74599 10.5644C7.70202 11.7471 6.72797 12.6961 5.53478 12.6961C5.17654 12.6962 4.8237 12.6089 4.50686 12.4418C4.71143 12.7272 4.98104 12.9598 5.29334 13.1203C5.60565 13.2809 5.95169 13.3648 6.30286 13.3651ZM14.0539 4.25775V3.67077C13.3446 3.67144 12.6507 3.46517 12.057 3.07723C12.5775 3.67641 13.2783 4.09061 14.0542 4.25775" fill="#00F2EA"/>
<path fill-rule="evenodd" clip-rule="evenodd" d="M12.0587 3.06699C11.4769 2.40142 11.1565 1.54737 11.1569 0.663436H10.4507C10.5421 1.15201 10.7318 1.61694 11.0082 2.03008C11.2846 2.44322 11.642 2.79598 12.0587 3.06699ZM5.53492 8.26061C4.94751 8.26131 4.38437 8.4949 3.96899 8.91021C3.55365 9.32547 3.32001 9.88852 3.31931 10.4758C3.31971 10.8798 3.43052 11.2761 3.63979 11.6217C3.84906 11.9673 4.1488 12.2491 4.50664 12.4368C4.23417 12.0611 4.08746 11.6089 4.08743 11.1449C4.088 10.5575 4.3216 9.99437 4.73698 9.579C5.15235 9.16363 5.71556 8.92997 6.30304 8.9293C6.53135 8.9293 6.75012 8.96703 6.95679 9.03189V6.34144C6.74022 6.31078 6.52178 6.29485 6.30304 6.29381C6.26454 6.29381 6.22681 6.29601 6.1887 6.29674V8.36322C5.97727 8.29593 5.7568 8.26134 5.53492 8.26061Z" fill="#FF004F"/>
<path fill-rule="evenodd" clip-rule="evenodd" d="M14.0501 4.25776V6.30591C12.6832 6.30591 11.4171 5.86881 10.383 5.12686V10.4825C10.383 13.1571 8.20695 15.3331 5.53179 15.3331C4.498 15.3331 3.53935 15.0071 2.75146 14.4538C3.20444 14.9422 3.75342 15.3318 4.36403 15.5982C4.97465 15.8646 5.63369 16.002 6.29987 16.0018C8.97503 16.0018 11.1514 13.8258 11.1514 11.1515V5.79589C12.2198 6.56397 13.5027 6.97647 14.8186 6.97494V4.33911C14.5547 4.33911 14.2982 4.31052 14.0501 4.25739" fill="#FF004F"/>
<path fill-rule="evenodd" clip-rule="evenodd" d="M10.3857 10.4796V5.12398C11.454 5.89213 12.737 6.30463 14.0529 6.30303V4.25489C13.277 4.08758 12.5763 3.67324 12.056 3.074C11.6393 2.80299 11.2819 2.45024 11.0055 2.03709C10.7291 1.62395 10.5394 1.15902 10.448 0.670449H8.51822L8.51419 11.2318C8.46985 12.4145 7.49617 13.3638 6.30261 13.3638C5.95144 13.3635 5.6054 13.2795 5.29309 13.119C4.98082 12.9584 4.71121 12.7259 4.50661 12.4405C4.1487 12.2529 3.84886 11.9711 3.63952 11.6255C3.43018 11.2799 3.31932 10.8836 3.31892 10.4796C3.31958 9.89224 3.55322 9.3292 3.9686 8.91393C4.38394 8.49863 4.94712 8.26503 5.53453 8.26433C5.76247 8.26433 5.98124 8.30172 6.18827 8.36695V6.30047C3.56589 6.36203 1.45143 8.51203 1.45143 11.1486C1.45143 12.4237 1.94688 13.5844 2.75419 14.4513C3.56805 15.0241 4.53924 15.3311 5.53453 15.3303C8.20968 15.3303 10.3857 13.1542 10.3857 10.4796Z" fill="black"/>
</svg>
